<svg xmlns="http://www.w3.org/2000/svg" version="1.1" xmlns:xlink="http://www.w3.org/1999/xlink" xmlns:svgjs="http://svgjs.dev/svgjs" width="1000" height="1125" viewBox="0 0 1000 1125"><g transform="matrix(1,0,0,1,0,0)"><svg viewBox="0 0 320 360" data-background-color="#ffffff" preserveAspectRatio="xMidYMid meet" height="1125" width="1000" xmlns="http://www.w3.org/2000/svg" xmlns:xlink="http://www.w3.org/1999/xlink"><g id="tight-bounds" transform="matrix(1,0,0,1,0,0)"><svg viewBox="0 0 320 360" height="360" width="320"><g><svg></svg></g><g><svg viewBox="0 0 320 360" height="360" width="320"><g><path xmlns="http://www.w3.org/2000/svg" d="M219.58 41.008c0.707 0 6.365 2.829 9.547 3.89-1.061 0.354-3.536-0.707-6.365-1.768 0.707 0 2.122 0.354 3.536 1.06-0.707-0.707-6.011-2.475-6.718-3.182M166.895 30.047c1.061-0.354 13.436 1.414 19.094 1.768 0.354-0.354-0.707-0.354-2.122-0.707 1.768-0.354 5.304 0.707 7.779 1.06-7.425 0.354-15.558-1.768-22.629-1.06-2.475 0-0.707-0.707-2.122-1.061M156.641 30.047c6.365 0 11.315 0 2.121 0.707-1.061-0.354-2.475-0.354-2.121-0.707M256.707 59.395c0.707 0 3.536 3.182 4.95 4.243-0.354 0.354-3.182-2.475-4.596-3.536 0.354 0.354 0 0-0.354-0.707M249.635 54.798c-2.829-2.475-3.889-2.475-4.243-3.889 2.475 1.414 4.243 2.829 4.243 3.889M204.022 32.522c0.354-0.354 1.061 0.354 2.829 0.707-2.122-0.354-1.768 0-1.061 0.707-2.475-0.354-3.182-0.707-2.475-1.414 1.414 0.707 1.768 0.354 0.707 0M103.602 36.765c0-0.354 1.414-1.061 2.475-1.414-1.061 0.707-0.707 1.061 1.061 0.353 0 0.354-2.122 1.061-3.536 1.768 0.707-0.354 1.414-1.414 0-0.707M211.094 28.986c-1.061 0.354-4.95-1.768-8.84-2.475-2.122-0.707 8.486 1.768 8.84 2.475M2.475 203.66c2.122 8.84 0.707 8.486 0 0M2.829 150.621c0.354-1.414 0.707-5.304 1.06-4.95-1.061 8.486-2.829 12.376-3.182 18.74 1.061-5.657-0.354 3.182-0.707 5.304 0.354 2.829 0.354-1.768 1.061-1.06 0.707 1.061-1.414 15.912-0.707 7.779-0.707 7.425 0 15.558 1.414 17.679-1.768 11.315 7.072 36.773 8.84 42.077 0.354 0.354 0-1.768 0.707-0.353 0.707 4.597 3.889 7.779 4.95 12.729 1.061 1.414 5.304 9.193 6.011 10.962 1.414 2.829 2.122 2.475 3.536 5.303 4.243 8.133 10.961 15.912 17.326 23.337 20.508 24.044 51.978 43.845 86.984 50.918 35.006 7.425 71.779 2.122 100.419-11.669 1.768-1.061 1.414-1.414 3.536-2.122 9.901-3.182 21.923-13.436 28.641-17.326 3.182-3.536 11.669-9.547 12.73-13.082 6.011-4.95 12.022-13.083 15.204-18.387 1.768-2.829 3.182-2.829 3.889-4.597-0.354 0 5.657-7.425 7.426-11.668-0.707 0-1.768 2.122-1.768 0 12.729-24.398 19.801-57.282 15.911-79.912 0.707 27.934-6.365 59.05-19.801 78.851-6.011 12.729-18.387 26.519-29.701 36.42-1.768 1.768-3.536 3.889-5.658 5.304-6.718 5.657-14.144 10.254-21.922 14.497-18.387 10.254-38.895 19.094-62.94 19.447 41.37-3.536 78.497-24.398 99.006-49.856-15.558 15.204-22.276 21.215-39.602 30.055-1.414 2.475-13.083 7.425-20.862 9.547 4.597-2.122 14.144-5.657 17.326-8.486-25.812 12.376-54.453 19.448-81.326 15.558 10.254 0 24.751 0.354 38.541-2.121 2.122-0.707 3.182-1.414 5.658-1.768 26.873-6.011 52.685-19.094 71.072-37.481-10.608 9.547-26.519 20.862-36.774 24.398 9.547-5.304 26.873-15.558 32.53-23.337-11.315 11.315-32.53 22.63-45.966 27.58-2.122 0.354 1.414-1.414-2.122 0-4.243 1.061-2.475 1.061-3.536 1.768-16.265 4.597-35.006 8.486-50.563 7.072-2.829-0.354-3.889-1.061-6.365-1.061-2.829-0.354-5.304-0.354-8.486-0.354-12.376-1.414-25.812-6.365-35.713-10.607-5.304-2.475-10.608-4.243-15.912-7.426-4.243-2.475-7.779-5.304-11.314-8.132-13.436-9.901-24.751-19.801-35.36-33.945-19.094-26.519-28.994-59.757-27.58-92.641 1.414-32.884 14.497-65.061 35.359-88.752-1.061 1.061 1.414-2.475 3.536-4.596 0 0.707-0.354 1.768 2.122-0.707 2.122-2.475-0.707-0.707 0.353-2.122 21.923-24.044 60.111-43.492 99.36-44.199 1.414-1.061 3.889-2.475 6.718-1.768 0 0.354-1.768 0.354-1.768 0.354 3.889-0.354 7.425-0.354 9.193 0.353 0.354-0.354-1.414-0.707 0-0.707 2.475 0.707 3.182 0 4.597 0.707-1.061 0-2.122 0-2.829 0.354 8.84 0 14.497 2.122 23.337 2.829-4.597-1.061-5.657-1.061-9.193-2.122 3.889 0.707 5.657 1.414 7.425 1.061-0.707 0-0.354-1.061 0.354-0.707 7.072 1.768 7.779 2.475 15.204 4.95 0.707-0.707-3.182-1.061-4.243-2.122 7.072 2.475 13.436 4.243 17.68 7.072-1.414-1.061-5.657-2.475-8.84-3.889-0.354 0.354 1.061 0.707 1.414 1.414-3.536-1.768-8.486-3.536-13.436-4.243 4.243 1.061 7.072 2.475 8.84 3.182-3.889-0.707-8.84-3.182-14.498-4.243 9.193 2.829 26.519 9.193 37.127 14.851-3.889-2.475-8.486-4.243-10.961-5.657 2.122 0.354 4.597 1.768 4.597 1.06 2.475 1.061 5.657 3.536 7.425 3.89-3.182-2.122-9.547-5.304-11.668-6.365 26.519 12.022 50.21 32.177 65.414 57.989 1.414 2.475 3.536 8.133 5.304 8.84-0.354-1.768-1.768-2.829-3.182-5.657 0.707 0 0.707-1.061 0-2.122-1.414-1.768 0 1.414-1.415-0.354-6.365-11.669-14.144-21.923-26.165-33.237 6.718 6.365 1.768 1.768 0.353-0.354 9.193 8.133 19.801 21.923 24.398 28.995-0.707-1.061-1.061-1.768-0.707-1.768 8.486 14.497 13.79 27.58 19.094 46.32 0.354 0.354 0-1.414 0.707-0.353 3.536 14.851 4.597 27.227 4.243 38.541 2.829-19.094-3.536-48.796-14.851-72.133-1.414-2.829-1.414-0.707-2.829-3.889 0-1.061-1.061-3.182-1.768-4.597-14.144-23.337-31.47-39.956-51.978-53.038 1.414 0.707 4.243 2.829 4.244 2.475-38.188-25.105-82.387-28.641-118.807-20.862-2.475 1.061-3.536 2.122-6.365 3.536 5.304-1.768 8.486-2.122 13.437-3.183 1.061-1.061-4.597 0.354-2.122-0.707 0.354 0.354 4.95-0.707 6.011-0.353 0 0.354-1.414 0.707-1.768 1.06 11.669-2.475 23.691-2.829 33.945-2.121-6.011 0.354-16.972-0.707-20.508 1.061 3.536-0.354 8.486-0.707 11.668-0.354-4.243 0-12.022 0.354-15.558 0.707-0.354-0.354 5.657-1.061 1.768-1.06-1.768 0.354-4.597 0.354-5.657 1.414-30.409 2.829-60.111 18.74-80.973 37.481-4.243 3.536-9.193 7.425-12.375 11.314-7.779 8.84-12.729 17.68-18.387 25.459 3.536-7.425 11.315-18.74 20.508-28.287 9.193-9.547 19.094-17.68 24.398-21.923 0 1.414 8.486-5.304 11.669-7.425-2.122 1.768 1.414-0.707 2.121-0.354 11.315-6.718 20.508-9.193 30.763-13.083-2.475 0.707-4.597 1.414-4.951 1.061 2.475-0.707 3.889-1.414 3.536-1.768-9.901 2.829-25.459 9.547-37.834 16.972 22.276-15.204 50.564-24.398 78.497-24.751 27.934-0.707 55.16 6.365 76.729 17.68 14.497 6.365 28.287 18.033 39.249 29.348 3.182 2.829 0.707-0.707 5.304 4.243-1.414-0.707-2.475-1.414-0.707 0.707 2.829 3.182-0.707-2.475 3.889 3.182-0.354 0-1.768-1.768-1.768-1.061 12.376 10.961 21.923 30.762 27.58 43.846-1.414-5.304-4.95-12.729-7.779-18.033 8.486 15.558 11.315 24.751 14.851 38.541 1.414 1.061-0.707-4.95 0.707-2.121 0.354 2.122 0.707 8.84 2.122 9.9-1.061-6.718-2.829-14.851-4.243-16.265 1.061 0.707-1.768-8.133-3.536-10.254-0.707-5.657-5.657-15.558-9.901-22.984-15.204-29.702-42.431-54.099-72.839-67.536 0-0.707-1.768-1.414-2.476-2.121-30.055-12.729-66.122-16.265-100.773-8.133-35.006 8.486-67.889 28.641-91.227 57.636 1.061-3.536 9.901-10.254 10.255-13.083-10.254 10.961-21.215 25.459-28.641 41.016-7.779 15.558-12.022 31.47-13.79 43.138" fill="#ff0000" fill-rule="nonzero" stroke="none" stroke-width="1" stroke-linecap="butt" stroke-linejoin="miter" stroke-miterlimit="10" stroke-dasharray="" stroke-dashoffset="0" font-family="none" font-weight="none" font-size="none" text-anchor="none" style="mix-blend-mode: normal" data-fill-palette-color="tertiary"></path></g><g transform="matrix(1,0,0,1,82.12748439758845,90)"><svg viewBox="0 0 155.7450312048231 180" height="180" width="155.7450312048231"><g><svg viewBox="0 0 155.7450312048231 180" height="180" width="155.7450312048231"><g><svg viewBox="0 0 224 258.8846635304496" height="180" width="155.7450312048231"><g transform="matrix(1,0,0,1,0,136.9359461220956)"><svg viewBox="0 0 224 121.948717408354" height="121.948717408354" width="224"><g id="textblocktransform"><svg viewBox="0 0 224 121.948717408354" height="121.948717408354" width="224" id="textblock"><g><svg viewBox="0 0 224 69.00884955752213" height="69.00884955752213" width="224"><g transform="matrix(1,0,0,1,0,0)"><svg width="224" viewBox="2.200000047683716 -51.25 183.29000854492188 52.70000076293945" height="69.00884955752213" data-palette-color="#ff0000"><path d="M50.45-38.5Q51.85-38.5 53.08-37.9 54.3-37.3 55.1-36.4L55.1-36.4Q54.1-36.3 53.8-36.2L53.8-36.2Q49.5-34.65 44.23-24.13 38.95-13.6 34.65-0.75L34.65-0.75Q34.65-0.7 34.55-0.43 34.45-0.15 34.27 0.03 34.1 0.2 33.75 0.3L33.75 0.3Q32.9 0.3 31.45 0.85L31.45 0.85Q30.5 1.2 30.05 1.2L30.05 1.2Q29.2 1.2 29.2 0.2L29.2 0.2Q29.15-1.9 29.15-1.75L29.15-1.75Q28.95-7 28.25-11.65 27.55-16.3 26.3-22.55L26.3-22.55 25.85-25Q23.2-20.6 18.95-12.05 14.7-3.5 13.7-0.7L13.7-0.7Q13.65-0.5 13.55-0.2 13.45 0.1 13.33 0.18 13.2 0.25 13.05 0.25L13.05 0.25Q11.55 0.4 10.7 0.63 9.85 0.85 8.7 1.45L8.7 1.45Q8.4 1.45 8.33 1.28 8.25 1.1 8.3 0.75L8.3 0.75Q8.95-4.2 8.95-11.65L8.95-11.65Q8.95-17.55 8.65-23.08 8.35-28.6 7.9-30.45L7.9-30.45Q7.75-31.05 7.43-31.33 7.1-31.6 6.4-31.6L6.4-31.6Q5.55-31.6 4.1-31.15L4.1-31.15Q3.2-30.95 3.1-30.95L3.1-30.95Q2.65-30.95 2.43-31.5 2.2-32.05 2.2-32.6L2.2-32.6Q2.2-33.2 2.55-33.25L2.55-33.25Q4.7-33.7 6.75-34.2L6.75-34.2Q13.3-35.65 13.45-35.65L13.45-35.65Q13.8-35.65 13.9-35.38 14-35.1 13.9-34.8L13.9-34.8Q13.85-34.6 13.6-34.13 13.35-33.65 13.15-32.5 12.95-31.35 12.85-29.4L12.85-29.4Q12.7-26.7 12.5-19.07 12.3-11.45 12.25-4.95L12.25-4.95Q16.05-12.65 24.05-29.25L24.05-29.25Q24.35-29.95 24.65-30.53 24.95-31.1 25.15-31.55L25.15-31.55Q25.4-31.85 26.75-32.23 28.1-32.6 29-32.6L29-32.6Q29.5-27.2 30.18-22 30.85-16.8 31-15.6L31-15.6Q31.9-9.3 32.3-5.3L32.3-5.3Q37.3-19.85 41.9-29.18 46.5-38.5 50.45-38.5L50.45-38.5ZM55.15 0.35Q52.85 0.35 51.5-0.88 50.15-2.1 50.15-4.8L50.15-4.8Q50.15-5.45 50.2-5.8L50.2-5.8 51.8-13.4Q52.8-18.5 53.1-19.65L53.1-19.65Q53.35-20.25 54.05-20.63 54.75-21 55.65-21L55.65-21Q56.45-21 56.97-20.68 57.5-20.35 57.55-19.95L57.55-19.95Q56.5-15.3 54.7-6.2L54.7-6.2Q54.65-5.8 54.65-5.15L54.65-5.15Q54.65-3.75 55.25-3.15 55.85-2.55 57-2.55L57-2.55Q59-2.55 61.3-3.98 63.6-5.4 65.57-7.53 67.55-9.65 68.65-11.75L68.65-11.75Q69.4-11.45 69.4-10.75L69.4-10.75Q69.4-10.25 69.2-9.73 69-9.2 68.95-9.05L68.95-9.05Q68-6.8 65.67-4.6 63.35-2.4 60.47-1.03 57.6 0.35 55.15 0.35L55.15 0.35ZM56.25-26.2Q55.05-26.2 54.42-26.9 53.8-27.6 53.8-28.8L53.8-28.8Q53.8-30.35 54.7-31.4 55.6-32.45 57.15-32.45L57.15-32.45Q58.35-32.45 59-31.8 59.65-31.15 59.65-29.95L59.65-29.95Q59.65-28.4 58.7-27.3 57.75-26.2 56.25-26.2L56.25-26.2ZM87.8-12.5Q88.95-12.5 88.95-10.85L88.95-10.85Q88.95-10 88.65-9.1L88.65-9.1Q87.95-6.9 85.77-4.7 83.59-2.5 80.57-1.07 77.55 0.35 74.34 0.35L74.34 0.35Q70.8 0.35 68.92-1.48 67.05-3.3 67.05-6.5L67.05-6.5Q67.05-9.25 68.32-16.3 69.59-23.35 71.25-30.93 72.9-38.5 73.84-41.9L73.84-41.9Q76.45-51.25 81-51.25L81-51.25Q83.25-51.25 84.34-49.2 85.45-47.15 85.45-44L85.45-44Q85.45-37.7 81.5-28.93 77.55-20.15 72.05-12.35L72.05-12.35Q71.65-9.15 71.65-7.3L71.65-7.3Q71.65-4.5 72.52-3.45 73.4-2.4 75.25-2.4L75.25-2.4Q77.75-2.4 80.27-3.85 82.8-5.3 84.8-7.63 86.8-9.95 87.8-12.5L87.8-12.5ZM78.34-41.25Q76.9-35.9 75.37-29.38 73.84-22.85 72.84-17.4L72.84-17.4Q76.59-23.95 79.34-31.45 82.09-38.95 82.09-43.95L82.09-43.95Q82.09-45.5 81.8-46.5 81.5-47.5 80.95-47.5L80.95-47.5Q80.45-47.5 79.92-46.28 79.4-45.05 78.34-41.25L78.34-41.25ZM107.84-12.5Q108.99-12.5 108.99-10.85L108.99-10.85Q108.99-10 108.69-9.1L108.69-9.1Q107.99-6.9 105.82-4.7 103.64-2.5 100.62-1.07 97.59 0.35 94.39 0.35L94.39 0.35Q90.84 0.35 88.97-1.48 87.09-3.3 87.09-6.5L87.09-6.5Q87.09-9.25 88.37-16.3 89.64-23.35 91.29-30.93 92.94-38.5 93.89-41.9L93.89-41.9Q96.49-51.25 101.04-51.25L101.04-51.25Q103.29-51.25 104.39-49.2 105.49-47.15 105.49-44L105.49-44Q105.49-37.7 101.54-28.93 97.59-20.15 92.09-12.35L92.09-12.35Q91.69-9.15 91.69-7.3L91.69-7.3Q91.69-4.5 92.57-3.45 93.44-2.4 95.29-2.4L95.29-2.4Q97.79-2.4 100.32-3.85 102.84-5.3 104.84-7.63 106.84-9.95 107.84-12.5L107.84-12.5ZM98.39-41.25Q96.94-35.9 95.42-29.38 93.89-22.85 92.89-17.4L92.89-17.4Q96.64-23.95 99.39-31.45 102.14-38.95 102.14-43.95L102.14-43.95Q102.14-45.5 101.84-46.5 101.54-47.5 100.99-47.5L100.99-47.5Q100.49-47.5 99.97-46.28 99.44-45.05 98.39-41.25L98.39-41.25ZM110.84 0.35Q108.54 0.35 107.19-0.88 105.84-2.1 105.84-4.8L105.84-4.8Q105.84-5.45 105.89-5.8L105.89-5.8 107.49-13.4Q108.49-18.5 108.79-19.65L108.79-19.65Q109.04-20.25 109.74-20.63 110.44-21 111.34-21L111.34-21Q112.14-21 112.67-20.68 113.19-20.35 113.24-19.95L113.24-19.95Q112.19-15.3 110.39-6.2L110.39-6.2Q110.34-5.8 110.34-5.15L110.34-5.15Q110.34-3.75 110.94-3.15 111.54-2.55 112.69-2.55L112.69-2.55Q114.69-2.55 116.99-3.98 119.29-5.4 121.27-7.53 123.24-9.65 124.34-11.75L124.34-11.75Q125.09-11.45 125.09-10.75L125.09-10.75Q125.09-10.25 124.89-9.73 124.69-9.2 124.64-9.05L124.64-9.05Q123.69-6.8 121.37-4.6 119.04-2.4 116.17-1.03 113.29 0.35 110.84 0.35L110.84 0.35ZM111.94-26.2Q110.74-26.2 110.12-26.9 109.49-27.6 109.49-28.8L109.49-28.8Q109.49-30.35 110.39-31.4 111.29-32.45 112.84-32.45L112.84-32.45Q114.04-32.45 114.69-31.8 115.34-31.15 115.34-29.95L115.34-29.95Q115.34-28.4 114.39-27.3 113.44-26.2 111.94-26.2L111.94-26.2ZM149.59-12.05Q150.49-12.05 150.49-10.55L150.49-10.55Q150.49-8.15 148.56-5.53 146.64-2.9 143.79-1.15 140.94 0.6 138.54 0.6L138.54 0.6Q136.64 0.6 135.21-0.5 133.79-1.6 133.19-3.35L133.19-3.35Q131.84-1.65 129.94-0.63 128.04 0.4 126.54 0.4L126.54 0.4Q125.24 0.4 123.94-0.38 122.64-1.15 121.74-2.35 120.84-3.55 120.79-4.75L120.79-4.75Q121.94-9.85 122.84-14.65L122.84-14.65Q123.04-15.65 124.54-17.18 126.04-18.7 128.14-19.8 130.24-20.9 132.14-20.9L132.14-20.9Q133.89-20.9 135.69-19.85L135.69-19.85Q136.04-20.7 136.24-20.93 136.44-21.15 136.84-21.2L136.84-21.2 141.19-21.45 141.34-21.35Q140.74-20.85 140.44-20.25 140.14-19.65 139.89-18.85L139.89-18.85Q138.99-15.8 138.04-11.48 137.09-7.15 137.09-5.5L137.09-5.5Q137.09-4.1 137.76-2.95 138.44-1.8 139.89-1.8L139.89-1.8Q141.39-1.8 143.36-3.1 145.34-4.4 147.06-6.75 148.79-9.1 149.59-12.05L149.59-12.05ZM128.14-2.6Q128.84-2.6 129.84-3.3 130.84-4 131.71-5.2 132.59-6.4 132.94-7.85L132.94-7.85 133.74-11.6Q134.64-16.2 134.99-17.65L134.99-17.65Q133.69-18.25 132.24-18.25L132.24-18.25Q129.89-18.25 128.71-16.78 127.54-15.3 127.14-13.45L127.14-13.45 125.59-5.9Q125.69-4.65 126.49-3.63 127.29-2.6 128.14-2.6L128.14-2.6ZM184.19-12.2Q184.79-12.2 185.14-11.88 185.49-11.55 185.49-10.9L185.49-10.9Q185.49-9.4 183.89-6.7 182.29-4 179.69-1.95 177.09 0.1 174.14 0.1L174.14 0.1Q171.49 0.1 169.56-1.53 167.64-3.15 167.64-5.5L167.64-5.5Q167.64-6.8 168.21-8.85 168.79-10.9 169.69-13.6L169.69-13.6Q170.49-16.2 170.59-16.6L170.59-16.6Q170.59-16.75 170.39-16.88 170.19-17 169.99-17L169.99-17Q169.04-17 166.69-13.73 164.34-10.45 163.14-8.15L163.14-8.15Q162.64-6.55 161.34-0.95L161.34-0.95Q161.14-0.1 161.01 0.2 160.89 0.5 160.64 0.5L160.64 0.5Q160.34 0.5 159.41 0.23 158.49-0.05 157.76-0.45 157.04-0.85 157.04-1.25L157.04-1.25Q157.04-1.9 157.49-3.55L157.49-3.55Q158.64-7.75 159.29-10.33 159.94-12.9 160.69-16.6L160.69-16.6Q160.39-17 159.94-17L159.94-17Q159.19-17 157.76-15.43 156.34-13.85 154.71-11.28 153.09-8.7 151.79-5.9L151.79-5.9Q150.89-2.65 150.29 0.45L150.29 0.45Q149.64 0.45 147.91 0.1 146.19-0.25 146.19-0.65L146.19-0.65Q146.19-1 146.69-2.85L146.69-2.85 146.94-4.15Q147.14-5.15 148.24-10.18 149.34-15.2 150.64-20.1L150.64-20.1Q150.74-20.55 150.89-20.75 151.04-20.95 151.34-20.95L151.34-20.95Q151.74-20.95 153.44-20.63 155.14-20.3 155.29-20.15L155.29-20.15Q154.34-16.05 153.19-11.7L153.19-11.7Q154.79-14.65 156.41-16.55 158.04-18.45 159.36-19.28 160.69-20.1 161.44-20.1L161.44-20.1Q162.09-20.1 163.71-19.48 165.34-18.85 165.34-18.5L165.34-18.5Q164.94-16.1 164.09-12.8L164.09-12.8Q169.34-20.65 171.69-20.65L171.69-20.65Q172.59-20.65 174.09-20.08 175.59-19.5 175.59-18.8L175.59-18.8Q175.04-17.05 175.09-17.15L175.09-17.15Q173.74-12.85 173.01-10.1 172.29-7.35 172.29-5.65L172.29-5.65Q172.29-2.55 175.19-2.55L175.19-2.55Q177.99-2.55 180.49-5.2 182.99-7.85 184.19-12.2L184.19-12.2Z" opacity="1" transform="matrix(1,0,0,1,0,0)" fill="#ff0000" class="undefined-text-0" data-fill-palette-color="primary" id="text-0"></path></svg></g></svg></g><g transform="matrix(1,0,0,1,0,85.30018272566372)"><svg viewBox="0 0 224 36.64853468269028" height="36.64853468269028" width="224"><g transform="matrix(1,0,0,1,0,0)"><svg width="224" viewBox="1.5 -38.099998474121094 237.14999389648438 38.79999923706055" height="36.64853468269028" data-palette-color="#ca3433"><path d="M1.5-2.4L1.5-2.4 2.2-8.9 3.9-8.8Q3.9-6.05 7.18-4.38 10.45-2.7 14.63-2.7 18.8-2.7 20.9-3.98 23-5.25 23-7.2L23-7.2Q23-10.5 19.5-13.1L19.5-13.1Q18.05-14.15 16.45-14.95L16.45-14.95Q12.8-16.85 11.88-17.38 10.95-17.9 9.8-18.45 8.65-19 7.68-19.63 6.7-20.25 5.6-21.15L5.6-21.15Q3.1-23.15 3.1-25.63 3.1-28.1 3.98-29.95 4.85-31.8 6.18-32.85 7.5-33.9 9.3-34.6L9.3-34.6Q12.35-35.7 16.13-35.7 19.9-35.7 23.4-33.8L23.4-33.8 22.8-28 21.1-28Q21.1-32.7 13.2-32.7L13.2-32.7Q9.55-32.7 7.73-31.55 5.9-30.4 5.9-28.4L5.9-28.4Q5.9-25.2 16.3-20.7L16.3-20.7Q23.15-17.75 25.05-14.15L25.05-14.15Q26-12.35 26-10.2L26-10.2Q26-5 21.83-2.15 17.65 0.7 11.75 0.7 5.85 0.7 1.5-2.4ZM39.4-1.4L39.4 0 29.4 0 29.4-1.4 30.1-1.4Q31.2-1.4 31.7-1.88 32.2-2.35 32.2-3.5L32.2-3.5 32.2-33Q32.2-33.95 31.55-34.38 30.9-34.8 29.3-34.8L29.3-34.8 29.3-36.2Q30.3-36.2 32.38-36.75 34.45-37.3 35.4-37.9L35.4-37.9 36.3-38.1 36.3-3.6Q36.3-2.8 36.38-2.45 36.45-2.1 36.95-1.75 37.45-1.4 38.5-1.4L38.5-1.4 39.4-1.4ZM65.2-1.4L65.2 0 58 0 58-4Q55.5-1.3 53.85-0.3 52.2 0.7 49.38 0.7 46.55 0.7 44.98-0.63 43.4-1.95 43.4-4.35 43.4-6.75 45.48-9.03 47.55-11.3 50.33-12.48 53.1-13.65 55.2-14.28 57.3-14.9 58-14.9L58-14.9 58-16Q58-20.7 54.1-20.7L54.1-20.7Q51.4-20.7 49.08-19.55 46.75-18.4 45.6-16.6L45.6-16.6 44.6-17.5Q47.95-24 56.2-24L56.2-24Q58.3-24 59.68-22.88 61.05-21.75 61.53-20.25 62-18.75 62-16.9L62-16.9 62-3.4Q62-2.75 62.1-2.4 62.2-2.05 62.73-1.73 63.25-1.4 64.3-1.4L64.3-1.4 65.2-1.4ZM58-6.8L58-6.8 58-12.9Q54.1-12.15 50.75-9.9 47.4-7.65 47.4-5L47.4-5Q47.4-3.95 48.43-3.18 49.45-2.4 50.98-2.4 52.5-2.4 54.6-3.78 56.7-5.15 58-6.8ZM88.2-6.1L88.2-6.1 89.1-5.2Q85.9 0.7 77.6 0.7L77.6 0.7Q73.75 0.7 71.03-2.7 68.3-6.1 68.3-10.3L68.3-10.3Q68.3-13 69.63-15.73 70.95-18.45 72.38-20.08 73.8-21.7 76.28-22.85 78.75-24 81.5-24 84.25-24 87.2-22.9L87.2-22.9 86.9-18.3 85.4-18.3Q85.4-19.6 83.78-20.45 82.15-21.3 80.15-21.3 78.15-21.3 76.55-20.68 74.95-20.05 74.13-19.15 73.3-18.25 72.8-17L72.8-17Q72-15.15 72-12.9L72-12.9Q72-9 74.45-5.7 76.9-2.4 80.4-2.4L80.4-2.4Q82.9-2.4 85.03-3.43 87.15-4.45 88.2-6.1ZM118.4-1.4L118.4 0 112.2 0 101.4-13.3 99.4-11.6 99.4-3.6Q99.4-2.8 99.48-2.45 99.55-2.1 100.08-1.75 100.6-1.4 101.7-1.4L101.7-1.4 102.6-1.4 102.6 0 92.5 0 92.5-1.4 93.1-1.4Q94.2-1.4 94.73-1.75 95.25-2.1 95.33-2.45 95.4-2.8 95.4-3.6L95.4-3.6 95.4-33Q95.4-33.95 94.73-34.38 94.05-34.8 92.4-34.8L92.4-34.8 92.4-36.2Q93.5-36.2 95.58-36.75 97.65-37.3 98.6-37.9L98.6-37.9 99.4-38.1 99.4-14.5 106.9-20.5Q107.7-21.15 107.7-21.4L107.7-21.4Q107.7-21.8 106.5-21.8L106.5-21.8 106.1-21.8 106.1-23.3 114.5-23.3 114.5-21.8 114-21.8Q112.1-21.8 110.9-20.8L110.9-20.8 104.7-15.7 114.5-3.6Q116.15-1.4 117.3-1.4L117.3-1.4 118.4-1.4ZM138.8-6.1L138.8-6.1 139.7-5.2Q136.5 0.7 128.2 0.7L128.2 0.7Q124.35 0.7 121.63-2.7 118.9-6.1 118.9-10.3L118.9-10.3Q118.9-13 120.22-15.73 121.55-18.45 122.97-20.08 124.4-21.7 126.88-22.85 129.35-24 132.1-24 134.85-24 137.8-22.9L137.8-22.9 137.5-18.3 136-18.3Q136-19.6 134.38-20.45 132.75-21.3 130.75-21.3 128.75-21.3 127.15-20.68 125.55-20.05 124.72-19.15 123.9-18.25 123.4-17L123.4-17Q122.6-15.15 122.6-12.9L122.6-12.9Q122.6-9 125.05-5.7 127.5-2.4 131-2.4L131-2.4Q133.5-2.4 135.63-3.43 137.75-4.45 138.8-6.1ZM152.7 0.7L152.7 0.7Q148.3 0.7 145.35-2.6 142.4-5.9 142.4-10.3L142.4-10.3Q142.4-15.9 146.63-19.95 150.85-24 155.55-24 160.25-24 163.13-20.68 166-17.35 166-13L166-13Q166-7.55 161.97-3.43 157.95 0.7 152.7 0.7ZM145.9-13Q145.9-8.35 148.72-5.28 151.55-2.2 155.07-2.2 158.6-2.2 160.6-4.85 162.6-7.5 162.6-10.3L162.6-10.3Q162.6-14.55 159.97-17.73 157.35-20.9 153.6-20.9 149.85-20.9 147.88-18.38 145.9-15.85 145.9-13L145.9-13ZM192.7-1.6L192.7 0 185.5 0 185.5-5.8Q184.45-2.95 182.1-1.13 179.75 0.7 176.28 0.7 172.8 0.7 170.8-1.55 168.8-3.8 168.8-7.6L168.8-7.6Q168.8-14.65 172.47-19.33 176.15-24 181.5-24L181.5-24Q182.7-24 185.5-23L185.5-23 185.5-33Q185.5-33.95 184.85-34.38 184.2-34.8 182.6-34.8L182.6-34.8 182.6-36.2Q183.65-36.2 185.7-36.75 187.75-37.3 188.6-37.9L188.6-37.9 189.5-38.1 189.5-3.4Q189.5-2.45 189.88-2.02 190.25-1.6 191.7-1.6L191.7-1.6 192.7-1.6ZM185.5-9.9L185.5-9.9 185.5-18.8Q185.3-19.1 184.9-19.6 184.5-20.1 183.22-20.9 181.95-21.7 180.6-21.7L180.6-21.7Q176.95-21.7 174.53-18.25 172.1-14.8 172.1-9.5L172.1-9.5Q172.1-6.55 173.88-4.63 175.65-2.7 178.43-2.7 181.2-2.7 183.35-5.73 185.5-8.75 185.5-9.9ZM216-6.1L216-6.1 216.9-5.2Q213.7 0.7 205.4 0.7L205.4 0.7Q201.55 0.7 198.83-2.7 196.1-6.1 196.1-10.3L196.1-10.3Q196.1-15.95 199.78-19.98 203.45-24 208.7-24L208.7-24Q211.2-24 213.1-22.55L213.1-22.55Q216.5-19.9 216.5-15.7L216.5-15.7Q216.5-15.1 216.28-14.25 216.05-13.4 215.9-13.4L215.9-13.4 199.8-12.9Q199.8-9 202.25-5.7 204.7-2.4 208.2-2.4L208.2-2.4Q210.7-2.4 212.83-3.43 214.95-4.45 216-6.1ZM200.3-14.9L200.3-14.9 212-15.4Q212.1-15.4 212.1-16.3L212.1-16.3Q212.1-18.9 210.58-20 209.05-21.1 206.38-21.1 203.7-21.1 202-19.45 200.3-17.8 200.3-14.9ZM231.55-1.4L231.55 0 220.75 0 220.75-1.4 221.55-1.4Q222.9-1.4 223.28-1.85 223.65-2.3 223.65-3.3L223.65-3.3 223.65-18.3Q223.65-19.25 223.03-19.68 222.4-20.1 220.75-20.1L220.75-20.1 220.75-21.5Q221.75-21.5 223.78-22.23 225.8-22.95 226.85-23.6L226.85-23.6 227.75-23.8 227.75-17.6Q229.55-21.55 231.85-22.83 234.15-24.1 238.65-24.1L238.65-24.1 238.35-18.3 236.85-18.3Q236.85-19 236.33-19.65 235.8-20.3 234.65-20.3L234.65-20.3Q232.15-20.3 229.95-17.6 227.75-14.9 227.75-12.4L227.75-12.4 227.75-3.6Q227.75-2.8 227.83-2.45 227.9-2.1 228.4-1.75 228.9-1.4 229.95-1.4L229.95-1.4 231.55-1.4Z" opacity="1" transform="matrix(1,0,0,1,0,0)" fill="#ca3433" class="undefined-text-1" data-fill-palette-color="secondary" id="text-1"></path></svg></g></svg></g></svg></g></svg></g><g transform="matrix(1,0,0,1,42.784000000000006,0)"><svg viewBox="0 0 138.432 120.64461295395401" height="120.64461295395401" width="138.432"><g><svg xmlns="http://www.w3.org/2000/svg" xmlns:xlink="http://www.w3.org/1999/xlink" version="1.0" x="0" y="0" viewBox="1.1180000305175781 4.118575572967529 47.92100143432617 41.76354217529297" enable-background="new 0 0 50 50" xml:space="preserve" height="120.64461295395401" width="138.432" class="icon-icon-0" data-fill-palette-color="accent" id="icon-0"><g fill="#ed2647" data-fill-palette-color="accent"><g fill="#ed2647" data-fill-palette-color="accent"><polygon fill="#ed2647" points="10.821,24.951 21,32.193 21,39.035 1.118,24.891 21,11.118 21,17.9   " data-fill-palette-color="accent"></polygon></g><g fill="#ed2647" data-fill-palette-color="accent"><polygon fill="#ed2647" points="49.039,25.277 35.815,16.063 34.219,21.712 39.475,25.338 31.411,30.97 29,38.79 29,39.424   " data-fill-palette-color="accent"></polygon></g><rect x="25.577" y="3.983" transform="matrix(0.9606 0.278 -0.278 0.9606 8.0575 -6.8179)" fill="#ed2647" width="4.981" height="42.035" data-fill-palette-color="accent"></rect></g></svg></g></svg></g><g></g></svg></g></svg></g></svg></g></svg></g><defs></defs></svg><rect width="320" height="360" fill="none" stroke="none" visibility="hidden"></rect></g></svg></g></svg>